PathFileType	3	(X/Y/Z)	D:\Vicon Database\Healthy Subjects\S0040\Jan. 30, 2020\Force Plate Walk 1.trc
DataRate	CameraRate	NumFrames	NumMarkers	Units	OrigDataRate	OrigDataStartFrame	OrigNumFrames
100.0	100.0	4	53	mm	100.0	504	322	
Frame#	Time	right_foot_cluster2			right_foot_cluster3			sternum_cluster1			sternum_cluster2			sternum_cluster3			left_asis			right_asis			left_psis			right_psis			sacrum_cluster1			sacrum_cluster2			sacrum_cluster3			left_lat_femoral_epicondyle			left_anterior_thigh15			left_anterior_thigh25			left_anterior_thigh50			left_lateral_thigh25			left_lateral_thigh50			left_thigh_cluster1			left_thigh_cluster2			left_thigh_cluster3			left_fibular_head			left_tibial_tuberosity			left_anterior_shank30			left_lateral_malleolus			left_shank_cluster1			left_shank_cluster2			left_shank_cluster3			left_heel			left_metatarsal2			left_foot_cluster1			left_foot_cluster2			left_foot_cluster3			right_lat_femoral_epicondyle			right_anterior_thigh15			right_anterior_thigh25			right_anterior_thigh50			right_lateral_thigh25			right_lateral_thigh50			right_thigh_cluster1			right_thigh_cluster2			right_thigh_cluster3			right_fibular_head			right_tibial_tuberosity			right_lateral_distal_shank			right_anterior_shank30			right_lateral_malleolus			right_shank_cluster1			right_shank_cluster2			right_shank_cluster3			right_heel			right_metatarsal2			right_foot_cluster1			
		X1	Y1	Z1	X2	Y2	Z2	X3	Y3	Z3	X4	Y4	Z4	X5	Y5	Z5	X6	Y6	Z6	X7	Y7	Z7	X8	Y8	Z8	X9	Y9	Z9	X10	Y10	Z10	X11	Y11	Z11	X12	Y12	Z12	X13	Y13	Z13	X14	Y14	Z14	X15	Y15	Z15	X16	Y16	Z16	X17	Y17	Z17	X18	Y18	Z18	X19	Y19	Z19	X20	Y20	Z20	X21	Y21	Z21	X22	Y22	Z22	X23	Y23	Z23	X24	Y24	Z24	X25	Y25	Z25	X26	Y26	Z26	X27	Y27	Z27	X28	Y28	Z28	X29	Y29	Z29	X30	Y30	Z30	X31	Y31	Z31	X32	Y32	Z32	X33	Y33	Z33	X34	Y34	Z34	X35	Y35	Z35	X36	Y36	Z36	X37	Y37	Z37	X38	Y38	Z38	X39	Y39	Z39	X40	Y40	Z40	X41	Y41	Z41	X42	Y42	Z42	X43	Y43	Z43	X44	Y44	Z44	X45	Y45	Z45	X46	Y46	Z46	X47	Y47	Z47	X48	Y48	Z48	X49	Y49	Z49	X50	Y50	Z50	X51	Y51	Z51	X52	Y52	Z52	X53	Y53	Z53	
504	5.03	664.27057	114.85761	-159.49232	663.86572	117.22604	-196.9675	962.80286	1415.9631	-109.35406	950.82471	1388.3181	-101.40775	954.28143	1390.5511	-139.19257	967.02252	1036.1002	15.115558	971.44073	1050.0292	-236.42104	1134.6501	1054.0273	-37.277161	1139.5057	1053.9772	-155.19052	1148.7908	1111.0779	-101.90528	1153.205	1085.3282	-113.98695	1154.0958	1079.5068	-74.392372	1170.6587	538.77539	33.090382	1050.0073	579.84473	-12.844861	1003.3621	657.62238	4.9607825	963.82556	794.64917	24.917517	1121.7084	682.39185	54.809952	1067.6959	817.42969	83.755478	1086.7267	776.17773	87.108543	1097.3756	749.04822	83.333725	1059.3607	747.71735	88.587685	1202.7046	464.32794	40.973942	1161.0282	426.55594	-14.516642	1307.9719	223.62405	-23.743271	1412.7865	151.09648	4.5219407	1186.2318	379.87869	-40.948719	1197.4528	354.54535	-31.770128	1209.4752	361.418	-67.95697	1497.2672	147.74754	-32.434528	1298.1418	57.469799	-28.946772	1331.1042	126.90116	-22.735781	1317.277	101.27793	-12.946708	1309.8105	105.29118	-50.210289	856.78619	528.37347	-241.72476	810.52942	640.83661	-186.11496	825.9447	719.01337	-186.05302	874.44446	836.03113	-196.83549	913.40247	675.02118	-271.79373	969.99396	811.82971	-300.74539	956.31299	759.76947	-305.6778	936.10443	739.45294	-301.07013	971.77948	724.37982	-295.64075	848.63269	461.98303	-243.03314	793.44617	467.89767	-197.40372	800.70874	197.26404	-226.11357	758.80591	221.98203	-180.52071	775.80896	96.604866	-211.12129	792.03717	402.09674	-141.44977	791.92883	373.43808	-134.11861	766.47931	376.6218	-161.06941	844.52979	57.166836	-174.15977	629.41296	86.920898	-168.57675	689.45886	125.93639	-169.23853
505	5.04	660.72601	109.90253	-158.20189	660.02008	112.78405	-195.51294	948.09778	1416.0159	-110.8018	935.85138	1388.5524	-102.7283	939.23761	1390.6583	-140.53709	950.80878	1036.0004	13.83964	954.35138	1049.9141	-237.71927	1118.3146	1053.4456	-38.942699	1123.0236	1053.7096	-157.02489	1131.989	1110.2795	-103.51344	1136.413	1084.9084	-115.95029	1137.8108	1079.1541	-76.094231	1149.2637	536.59412	32.293617	1028.0596	577.99323	-13.580342	983.4032	656.85748	4.0660877	945.95917	794.52667	23.557262	1102.3623	680.55359	53.379871	1050.0723	816.19495	81.854065	1068.4471	775.11243	85.667053	1079.1102	747.57837	81.661301	1041.3556	747.15198	86.670303	1182.6273	463.16815	40.633312	1142.0526	423.71625	-14.704001	1295.719	226.06082	-23.624634	1403.4194	157.37158	4.9558296	1169.1742	377.8045	-40.995338	1181.2468	352.88525	-31.830359	1192.7891	360.13254	-67.942078	1487.647	159.37854	-32.84013	1294.6906	56.640709	-28.681982	1322.5615	127.87448	-22.381247	1311.088	100.93238	-12.914568	1303.0474	104.53876	-49.885216	843.10596	527.60126	-241.77129	795.61395	639.61908	-185.28697	810.74268	718.23425	-185.64999	857.6629	835.7229	-197.08144	897.58325	674.83649	-271.9527	952.74988	811.89209	-301.46622	939.49677	760.01593	-306.47183	919.89337	739.47424	-301.68057	955.30121	724.77863	-296.56509	835.12726	461.30255	-243.22038	779.86945	466.24435	-197.39311	792.17358	195.17107	-224.75464	750.51526	219.20502	-178.52084	772.23083	95.678833	-209.9366	779.92645	400.42603	-140.86578	780.61859	371.7677	-133.42708	754.89612	374.22827	-160.19356	842.96826	58.164764	-174.22327	626.30493	80.794182	-167.57135	685.35278	121.8644	-167.68884
506	5.05	659.0191	107.09962	-156.84575	658.38519	110.59018	-194.13647	933.11261	1416.4844	-112.12862	920.88422	1389.0886	-104.00851	923.97345	1391.1682	-141.78067	934.78864	1036.1975	12.520713	937.37061	1050.2997	-238.99002	1102.1729	1053.1481	-40.571167	1106.8944	1054.0042	-158.61119	1115.0654	1110.3954	-105.12908	1119.787	1084.8005	-117.76164	1121.6511	1078.8767	-77.714394	1126.549	534.27557	31.822079	1004.6382	576.24207	-13.686877	962.28552	656.4137	3.5031152	927.62177	794.85156	22.064043	1082.306	678.42786	52.286018	1031.9172	815.01129	79.736801	1049.9663	773.87598	83.327271	1060.0667	746.33624	79.774666	1022.1348	746.24628	85.263741	1161.3041	461.94846	40.778717	1122.7323	420.27969	-14.908441	1284.0652	229.2393	-23.247133	1392.3353	164.10385	5.229074	1150.004	376.25537	-40.221699	1163.5747	351.37793	-31.246969	1174.3398	358.77792	-67.463966	1475.7054	172.28867	-33.703152	1291.2469	55.581463	-28.421721	1312.8837	128.63733	-21.902216	1303.7094	100.57906	-12.298426	1295.3364	103.71204	-49.413055	829.47717	527.66907	-241.83607	781.16608	639.11267	-184.55017	795.65717	717.94183	-185.74063	841.17419	835.75995	-197.83408	882.17126	675.23773	-271.93082	935.84778	812.60962	-302.51874	923.02881	760.7135	-307.43509	904.15912	739.83221	-302.16495	939.16089	725.70337	-297.59534	821.37073	461.5672	-243.21725	766.56525	465.38535	-196.39323	784.71393	194.02873	-223.57275	743.68494	217.06818	-175.96231	770.16809	95.218872	-208.64467	768.83557	399.17072	-139.68669	770.37927	370.59909	-132.27682	744.36627	372.31052	-158.84952	842.23688	58.74884	-173.71483	624.81567	77.233063	-166.79543	683.31915	119.72345	-165.91148
507	5.06	658.02985	105.41026	-155.57991	657.20801	109.44434	-192.97827	918.48822	1417.2372	-113.51886	905.86047	1389.9781	-105.16768	908.75909	1392.0009	-143.00803	918.97278	1036.743	11.129106	920.94995	1051.473	-240.25304	1086.3389	1053.074	-41.996754	1090.7831	1054.3922	-160.4698	1098.9015	1110.2579	-106.64444	1103.6705	1085.1346	-119.03721	1105.7281	1079.1091	-79.258621	1102.637	532.17004	31.664793	980.35632	574.67273	-12.797557	940.23114	656.29199	3.3823681	908.93225	795.6322	20.389359	1061.0422	676.23206	51.050476	1013.3024	813.85406	77.659325	1030.7932	772.72089	81.162674	1040.391	744.92352	78.066208	1002.4728	745.47974	83.44162	1138.7428	460.84067	41.570679	1101.4048	417.04034	-13.776896	1269.3645	232.56784	-22.625923	1379.4921	171.30652	5.4216309	1130.3989	373.83691	-38.974701	1144.1361	350.26566	-29.912521	1154.2037	357.47592	-66.461624	1461.524	187.3875	-34.895023	1287.0414	54.941456	-28.099783	1302.1918	128.69096	-21.445292	1295.8385	99.635109	-11.71262	1286.587	102.40673	-48.824669	814.88495	528.99384	-241.68234	766.8371	639.78931	-183.56326	780.5766	718.60297	-185.69531	824.98663	836.68567	-198.88681	867.81274	676.46674	-271.71011	919.06549	814.28033	-303.87051	906.66418	762.20929	-308.60095	887.17004	741.49475	-303.64334	923.10748	727.24518	-298.91592	807.07898	462.42636	-243.03447	753.76855	465.19626	-194.4263	779.01874	193.91161	-222.65535	738.39331	215.70505	-173.63019	768.97064	95.136337	-207.75557	759.15515	398.58313	-138.34186	761.32837	370.10803	-130.90849	735.51221	370.84421	-157.41789	841.80548	59.065926	-173.55283	624.06763	75.152046	-165.76959	682.3147	118.20528	-164.64218
